<svg width="512" height="512" viewBox="0 0 512 512" fill="none" xmlns="http://www.w3.org/2000/svg">
  <rect width="512" height="512" rx="128" fill="#E5F8F3" fill-opacity="0.42"/>
  <circle cx="368" cy="122" r="41" fill="#B9EDE3"/>
  <circle cx="142" cy="132" r="26" fill="#FFF4DF"/>
  <circle cx="403" cy="214" r="21" fill="#FFF"/>
  <path d="M142 308C142 240 193 196 256 196C319 196 370 240 370 308C370 370 318 406 256 406C194 406 142 370 142 308Z" fill="#183B36"/>
  <circle cx="170" cy="210" r="43" fill="#183B36"/>
  <circle cx="232" cy="156" r="44" fill="#183B36"/>
  <circle cx="305" cy="156" r="44" fill="#183B36"/>
  <circle cx="359" cy="213" r="43" fill="#183B36"/>
  <path d="M198 309C215 286 232 277 256 277C280 277 297 286 314 309" stroke="#D8AE5F" stroke-width="18" stroke-linecap="round"/>
  <circle cx="238" cy="322" r="9" fill="#D8AE5F"/>
  <circle cx="275" cy="322" r="9" fill="#D8AE5F"/>
  <path d="M145 364C109 338 90 301 92 256C96 164 172 92 264 96C356 100 428 176 424 268C422 314 399 353 364 377" stroke="#FFFFFF" stroke-width="20" stroke-linecap="round" opacity="0.88"/>
  <path d="M142 378C176 409 214 425 256 425C298 425 336 409 370 378" stroke="#9CCFC2" stroke-width="18" stroke-linecap="round"/>
</svg>
