<svg width="1180" height="1000" viewBox="0 0 1180 1000" fill="none" xmlns="http://www.w3.org/2000/svg">
  <rect width="1180" height="1000" fill="#FFF8F1"/>
  <rect x="94" y="95" width="992" height="716" rx="56" fill="#FFFFFF"/>
  <rect x="154" y="159" width="872" height="500" rx="34" fill="#E4F8F3"/>
  <rect x="205" y="224" width="276" height="266" rx="26" fill="#FFFFFF"/>
  <rect x="535" y="224" width="440" height="266" rx="26" fill="#FFFFFF"/>
  <rect x="198" y="593" width="790" height="84" rx="42" fill="#173B36"/>
  <circle cx="273" cy="636" r="25" fill="#D8AE5F"/>
  <rect x="326" y="616" width="248" height="18" rx="9" fill="#E5F8F3"/>
  <rect x="326" y="646" width="154" height="13" rx="6.5" fill="#9CCFC2"/>
  <path d="M254 393C254 329 300 286 357 286C414 286 460 329 460 393C460 452 420 485 357 485C294 485 254 452 254 393Z" fill="#F6C7B7"/>
  <circle cx="301" cy="301" r="38" fill="#F6C7B7"/>
  <circle cx="417" cy="301" r="38" fill="#F6C7B7"/>
  <circle cx="329" cy="397" r="10" fill="#173B36"/>
  <circle cx="385" cy="397" r="10" fill="#173B36"/>
  <path d="M339 431C350 440 365 440 376 431" stroke="#173B36" stroke-width="8" stroke-linecap="round"/>
  <path d="M614 375H902" stroke="#9CCFC2" stroke-width="28" stroke-linecap="round"/>
  <path d="M614 433H820" stroke="#D8AE5F" stroke-width="20" stroke-linecap="round"/>
  <circle cx="911" cy="307" r="43" fill="#FFF4DF"/>
  <circle cx="845" cy="295" r="25" fill="#B9EDE3"/>
  <rect x="284" y="755" width="600" height="54" rx="27" fill="#B9EDE3"/>
  <rect x="383" y="834" width="402" height="52" rx="26" fill="#FFFFFF"/>
</svg>
